<?xml version="1.0" encoding="UTF-8"?>
<svg id="Capa_2" xmlns="http://www.w3.org/2000/svg" viewBox="0 0 186.56 43">
  <g id="Capa_1-2" data-name="Capa_1">
    <g id="Monotono">
      <g>
        <g>
          <path d="M.99,16.18c2.61,9.65,8.05,19.02,15.39,25.82,8.55-2.05,16.85-6.51,23.35-12.52-.14-.12-.28-.25-.4-.39h0s-1.58-1.63-4.03-1.8c-2.83-.19-6.52,4.02-6.52,4.02h0c-2.16,2.57-5.41,4.21-9.04,4.21-6.52,0-11.79-5.27-11.79-11.78s5.29-11.78,11.79-11.78c1.4,0,2.74.24,3.99.69,2.91,1.04,5.28,3.19,6.62,5.93h0s2.56,5.29,5.32,5.8c2.4.44,4.41-.79,4.41-.79h0c.28-.18.59-.32.91-.43-2.63-8.28-7.49-16.1-13.59-22.19C17.59,3.52,8.1,8.98.99,16.18ZM28.5,6.49c0,1.57-1.27,2.84-2.84,2.84s-2.84-1.27-2.84-2.84,1.27-2.84,2.84-2.84,2.84,1.27,2.84,2.84Z"/>
          <g>
            <path d="M38.78,13.36c.33,1.24.63,2.49.88,3.75.74,1.63,1.39,3.29,1.96,4.97.53-1.21,1.01-2.44,1.45-3.68-1.3-1.76-2.74-3.44-4.29-5.04Z"/>
            <path d="M22.24,1.63c-1.27-.59-2.55-1.14-3.83-1.63-1.78,1.4-3.48,2.92-5.1,4.54,1.43-.4,2.87-.75,4.33-1.04,1.51-.69,3.05-1.32,4.6-1.88h0Z"/>
            <path d="M21.35,41.52c1.27.54,2.55,1.04,3.85,1.48,1.86-1.41,3.64-2.97,5.31-4.65-1.26.38-2.53.71-3.82,1-1.74.82-3.53,1.55-5.34,2.17h0Z"/>
            <path d="M1.64,21.27c-.6,1.3-1.16,2.61-1.64,3.94,1.5,1.85,3.13,3.63,4.88,5.3-.45-1.44-.84-2.9-1.17-4.38-.77-1.59-1.45-3.23-2.06-4.87Z"/>
          </g>
          <g>
            <path d="M9.66,39.51c1.04.11,2.1.18,3.16.22-2.73-2.99-5.14-6.34-7.17-9.9,1.02,3.38,2.36,6.64,4.01,9.68Z"/>
            <path d="M39.54,33.67c.11-.98.19-1.97.25-2.96-2.83,2.54-5.98,4.79-9.32,6.69,3.16-.96,6.21-2.21,9.08-3.73h0Z"/>
            <path d="M3.38,9.35c-.08,1.15-.13,2.3-.14,3.46,3.28-2.87,6.94-5.41,10.82-7.52-3.72,1-7.31,2.36-10.69,4.06h0Z"/>
            <path d="M34.06,3.42c-1.08-.09-2.17-.15-3.27-.17,2.7,3.11,5.08,6.55,7.07,10.21-.95-3.49-2.23-6.86-3.8-10.03h0Z"/>
          </g>
          <g>
            <path d="M13.87,24.29c-.3-3.23,2.08-6.1,5.32-6.4,3.24-.3,6.11,2.08,6.41,5.32.3,3.23-2.08,6.1-5.32,6.4-3.24.3-6.11-2.08-6.41-5.31Z"/>
            <path d="M40.26,26.85c-.09-1.01.65-1.9,1.66-1.99s1.9.65,2,1.66-.65,1.9-1.66,1.99-1.9-.65-2-1.66Z"/>
            <path d="M24.23,6.49c0-.79.64-1.42,1.42-1.42s1.42.64,1.42,1.42-.64,1.42-1.42,1.42-1.42-.64-1.42-1.42Z"/>
          </g>
        </g>
        <polygon points="54.78 40.61 54.27 40.61 54.27 21.5 54.27 2.38 54.78 2.38 54.78 21.5 54.78 40.61"/>
        <g>
          <g>
            <path d="M71.6,28.7v11.16h-.4c-.14,0-.21-.07-.23-.2l-.07-1.21c-.34.46-.73.83-1.18,1.1s-.96.41-1.52.41c-.94,0-1.68-.33-2.19-.98-.52-.65-.79-1.63-.79-2.92,0-.56.07-1.08.22-1.56.15-.48.36-.9.64-1.26s.63-.64,1.04-.84.88-.31,1.42-.31.96.09,1.34.28c.38.19.71.47.99.85v-4.53h.74ZM70.87,33.88c-.29-.44-.62-.75-.97-.93s-.76-.27-1.22-.27-.85.08-1.18.25c-.34.16-.62.4-.85.69s-.4.66-.51,1.08c-.12.41-.17.88-.17,1.38,0,1.14.21,1.97.62,2.5.41.54,1.02.8,1.81.8.5,0,.96-.13,1.37-.39.41-.26.78-.62,1.09-1.09v-4.01h0Z"/>
            <path d="M74.21,35.75v.15c0,.57.07,1.08.2,1.51s.32.8.57,1.09.54.51.89.66.74.22,1.17.22c.38,0,.72-.04,1-.12.28-.09.52-.18.71-.28.19-.11.35-.2.46-.28.11-.09.19-.13.25-.13.07,0,.12.02.15.07l.2.25c-.12.15-.28.3-.49.43s-.43.25-.67.34c-.25.09-.51.17-.8.23-.28.06-.57.09-.85.09-.52,0-1-.09-1.43-.27s-.8-.45-1.11-.79c-.31-.35-.54-.77-.71-1.28-.17-.5-.25-1.08-.25-1.73,0-.54.08-1.05.23-1.51s.38-.86.67-1.2.66-.6,1.08-.79c.43-.19.91-.28,1.45-.28.43,0,.83.07,1.2.22s.69.36.96.65c.27.28.48.63.64,1.04.15.41.23.89.23,1.43,0,.11-.02.19-.04.23-.03.04-.08.06-.15.06h-5.56ZM79.3,35.28c0-.41-.06-.78-.17-1.1-.12-.33-.28-.6-.49-.82-.21-.22-.46-.4-.75-.52-.29-.12-.61-.18-.96-.18-.4,0-.75.06-1.06.19s-.58.3-.81.53-.41.51-.55.83c-.14.32-.23.68-.28,1.08h5.06Z"/>
            <path d="M87.76,28.7v11.16h-.74v-11.16h.74Z"/>
            <path d="M89.96,33.31c.4-.4.82-.7,1.26-.9s.94-.31,1.5-.31c.41,0,.77.07,1.08.2s.56.32.76.56c.2.24.35.54.46.88s.15.73.15,1.16v4.97h-.29c-.15,0-.25-.07-.28-.22l-.11-.98c-.21.2-.42.39-.62.55-.2.17-.43.3-.65.41s-.47.2-.73.26-.54.09-.86.09c-.26,0-.51-.04-.76-.12-.25-.07-.46-.19-.66-.35-.19-.16-.35-.36-.46-.61-.12-.25-.17-.54-.17-.9,0-.32.09-.62.28-.9.19-.28.48-.52.87-.72s.9-.37,1.51-.49c.62-.12,1.36-.19,2.22-.22v-.8c0-.7-.15-1.25-.46-1.63s-.75-.57-1.35-.57c-.37,0-.68.05-.94.15s-.48.22-.66.34-.33.23-.44.34c-.11.11-.2.15-.28.15-.06,0-.11-.01-.14-.04-.04-.02-.07-.06-.09-.1l-.13-.22h0ZM94.45,36.18c-.73.02-1.35.08-1.88.17-.53.09-.96.21-1.3.36s-.59.33-.75.55c-.16.21-.25.45-.25.72,0,.25.04.48.12.66.09.19.2.34.34.46.14.12.3.21.49.27.19.06.38.09.57.09.3,0,.57-.03.82-.09s.48-.15.69-.27c.21-.12.41-.25.59-.41.19-.16.36-.33.54-.51v-2h0Z"/>
            <path d="M106.08,29.01c.62,0,1.16.06,1.61.19s.83.3,1.13.54c.3.23.51.53.66.87.14.34.22.73.22,1.17,0,.28-.05.56-.15.83s-.24.51-.43.74c-.19.22-.41.42-.69.59-.27.17-.59.29-.94.38.85.12,1.51.41,1.97.85s.69,1.03.69,1.74c0,.46-.08.88-.25,1.24s-.4.68-.71.93-.7.45-1.15.59c-.46.14-.97.2-1.55.2h-3.52v-10.86h3.12,0ZM103.75,29.63v4.46h2.35c.5,0,.93-.06,1.29-.19s.65-.3.88-.51.4-.45.5-.71.16-.54.16-.82c0-.73-.23-1.29-.69-1.66-.46-.38-1.18-.56-2.15-.56h-2.34ZM106.47,39.24c.95,0,1.67-.2,2.16-.62s.74-.99.74-1.74c0-.34-.07-.65-.2-.93-.13-.27-.32-.51-.56-.7-.25-.19-.55-.34-.9-.44-.36-.11-.77-.15-1.22-.15h-2.73v4.57h2.73,0Z"/>
            <path d="M113.09,29.6c0,.09-.02.18-.06.26-.04.08-.09.15-.15.21s-.14.11-.22.15-.17.06-.26.06-.18-.02-.26-.06-.15-.09-.22-.15-.11-.13-.15-.21c-.04-.08-.06-.17-.06-.26s.02-.18.06-.27.09-.15.15-.22.13-.11.22-.15c.08-.04.17-.06.26-.06s.18.02.26.06.15.09.22.15.11.14.15.22c.04.09.06.17.06.27ZM112.77,32.23v7.63h-.73v-7.63h.73Z"/>
            <path d="M118.23,32.11c.55,0,1.04.09,1.47.28.43.19.8.45,1.09.8s.53.75.68,1.24.23,1.03.23,1.63-.08,1.14-.23,1.62-.38.89-.68,1.24c-.3.34-.66.61-1.09.79-.43.19-.92.28-1.47.28s-1.04-.09-1.47-.28-.8-.45-1.09-.79c-.3-.34-.53-.75-.69-1.24-.15-.48-.23-1.02-.23-1.62s.08-1.14.23-1.63c.15-.48.38-.9.69-1.24.3-.34.67-.61,1.09-.8.43-.19.92-.28,1.47-.28ZM118.23,39.39c.46,0,.85-.08,1.19-.23.34-.15.62-.38.85-.67s.4-.64.51-1.06c.11-.41.17-.87.17-1.38s-.06-.96-.17-1.38c-.11-.41-.28-.77-.51-1.06s-.51-.52-.85-.68-.74-.23-1.19-.23-.85.08-1.19.23c-.34.16-.62.38-.85.68-.23.3-.4.65-.51,1.06-.12.41-.17.88-.17,1.38s.06.97.17,1.38c.12.41.28.76.51,1.06s.51.51.85.67c.34.15.74.23,1.19.23Z"/>
            <path d="M129.54,28.7v11.16h-.4c-.14,0-.21-.07-.23-.2l-.07-1.21c-.34.46-.73.83-1.18,1.1s-.96.41-1.52.41c-.94,0-1.68-.33-2.19-.98-.52-.65-.79-1.63-.79-2.92,0-.56.07-1.08.22-1.56.15-.48.36-.9.64-1.26s.63-.64,1.04-.84.88-.31,1.42-.31.96.09,1.34.28c.38.19.71.47.99.85v-4.53h.74ZM128.81,33.88c-.29-.44-.62-.75-.97-.93s-.76-.27-1.22-.27-.85.08-1.18.25c-.34.16-.62.4-.85.69s-.4.66-.51,1.08c-.12.41-.17.88-.17,1.38,0,1.14.21,1.97.62,2.5.41.54,1.02.8,1.81.8.5,0,.96-.13,1.37-.39.41-.26.78-.62,1.09-1.09v-4.01h0Z"/>
            <path d="M133.01,29.6c0,.09-.02.18-.06.26-.04.08-.09.15-.15.21s-.14.11-.22.15-.17.06-.26.06-.18-.02-.26-.06-.15-.09-.22-.15-.11-.13-.15-.21c-.04-.08-.06-.17-.06-.26s.02-.18.06-.27.09-.15.15-.22.13-.11.22-.15c.08-.04.17-.06.26-.06s.18.02.26.06.15.09.22.15.11.14.15.22c.04.09.06.17.06.27ZM132.7,32.23v7.63h-.73v-7.63h.73Z"/>
            <path d="M141.26,32.23l-3.22,7.63h-.64l-3.22-7.63h.57c.07,0,.13.02.18.06.04.04.07.08.09.13l2.52,6.02c.07.22.14.45.19.67.05-.22.11-.45.19-.67l2.53-6.02c.02-.06.06-.1.11-.14.04-.03.1-.05.15-.05h.55,0Z"/>
            <path d="M142.74,35.75v.15c0,.57.07,1.08.2,1.51s.32.8.57,1.09.54.51.89.66.74.22,1.17.22c.38,0,.72-.04,1-.12.28-.09.52-.18.71-.28s.35-.2.46-.28c.11-.09.19-.13.25-.13.07,0,.12.02.15.07l.2.25c-.12.15-.28.3-.49.43s-.43.25-.67.34-.51.17-.8.23c-.28.06-.57.09-.85.09-.52,0-1-.09-1.43-.27s-.8-.45-1.11-.79c-.31-.35-.54-.77-.71-1.28-.17-.5-.25-1.08-.25-1.73,0-.54.08-1.05.23-1.51s.38-.86.67-1.2.66-.6,1.08-.79c.43-.19.91-.28,1.45-.28.43,0,.83.07,1.2.22s.69.36.96.65.48.63.64,1.04c.15.41.23.89.23,1.43,0,.11-.02.19-.04.23-.03.04-.08.06-.15.06h-5.56ZM147.83,35.28c0-.41-.06-.78-.17-1.1-.12-.33-.28-.6-.49-.82s-.46-.4-.75-.52c-.29-.12-.61-.18-.96-.18-.4,0-.75.06-1.06.19s-.58.3-.81.53-.41.51-.55.83c-.14.32-.23.68-.28,1.08h5.06Z"/>
            <path d="M151.01,34.07c.12-.31.25-.59.4-.83.15-.24.33-.45.52-.62.2-.17.41-.3.66-.39.24-.09.51-.14.81-.14.16,0,.32.01.47.04.15.02.29.08.41.15l-.06.51c-.02.08-.07.12-.15.12-.06,0-.15-.02-.28-.06s-.29-.06-.49-.06c-.3,0-.56.04-.79.14-.23.09-.43.22-.61.4-.18.18-.34.4-.48.66-.14.27-.26.57-.37.91v4.94h-.74v-7.63h.39c.09,0,.15.02.19.06s.06.1.07.19l.06,1.6h0Z"/>
            <path d="M159.67,33.18c-.04.07-.1.11-.18.11-.06,0-.13-.03-.22-.1s-.2-.14-.35-.22c-.15-.08-.33-.15-.54-.22-.22-.06-.48-.09-.79-.09-.28,0-.53.04-.75.12-.23.08-.42.19-.58.32s-.28.29-.37.46-.13.36-.13.56c0,.24.06.44.19.6.12.16.28.3.48.41.2.11.42.21.68.29.25.08.51.17.78.25s.53.17.78.27.48.22.68.37c.2.15.36.33.48.54.12.22.19.48.19.79,0,.33-.06.64-.18.93s-.29.54-.52.74c-.23.21-.51.38-.84.5-.33.12-.71.19-1.14.19-.54,0-1-.09-1.39-.26s-.74-.4-1.04-.67l.17-.26s.06-.07.09-.09.08-.03.14-.03c.07,0,.15.04.24.12s.22.17.38.27c.16.09.35.19.59.27.23.08.52.12.87.12.32,0,.61-.04.85-.14.25-.09.45-.21.61-.36s.28-.33.37-.54.13-.43.13-.66c0-.25-.06-.47-.19-.64-.12-.17-.28-.31-.48-.43-.2-.12-.43-.22-.68-.3s-.51-.17-.78-.25-.53-.17-.78-.27-.48-.22-.68-.37c-.2-.15-.36-.33-.48-.54-.12-.21-.19-.48-.19-.8,0-.27.06-.53.18-.79s.28-.47.5-.66c.22-.19.48-.34.8-.45.31-.11.66-.17,1.05-.17.46,0,.88.07,1.24.2s.69.34.98.61l-.15.25v.02Z"/>
            <path d="M162.96,29.6c0,.09-.02.18-.06.26-.04.08-.09.15-.15.21-.06.06-.14.11-.22.15s-.17.06-.26.06-.18-.02-.26-.06-.15-.09-.22-.15-.11-.13-.15-.21-.06-.17-.06-.26.02-.18.06-.27.09-.15.15-.22c.06-.06.13-.11.22-.15.08-.04.17-.06.26-.06s.18.02.26.06.15.09.22.15.11.14.15.22c.04.09.06.17.06.27ZM162.65,32.23v7.63h-.73v-7.63h.73Z"/>
            <path d="M171.02,28.7v11.16h-.4c-.14,0-.21-.07-.23-.2l-.07-1.21c-.34.46-.73.83-1.18,1.1s-.96.41-1.52.41c-.94,0-1.68-.33-2.19-.98-.52-.65-.79-1.63-.79-2.92,0-.56.07-1.08.22-1.56.15-.48.36-.9.64-1.26s.63-.64,1.04-.84.88-.31,1.42-.31.96.09,1.34.28c.38.19.71.47.99.85v-4.53h.74ZM170.29,33.88c-.29-.44-.62-.75-.97-.93s-.76-.27-1.22-.27-.85.08-1.18.25c-.34.16-.62.4-.85.69s-.4.66-.51,1.08c-.12.41-.17.88-.17,1.38,0,1.14.21,1.97.62,2.5.41.54,1.02.8,1.81.8.5,0,.96-.13,1.37-.39.41-.26.78-.62,1.09-1.09v-4.01h0Z"/>
            <path d="M173.15,33.31c.4-.4.82-.7,1.26-.9s.94-.31,1.5-.31c.41,0,.77.07,1.08.2s.56.32.76.56c.2.24.35.54.46.88.11.35.15.73.15,1.16v4.97h-.29c-.15,0-.25-.07-.28-.22l-.11-.98c-.21.2-.42.39-.62.55-.2.17-.43.3-.65.41s-.47.2-.73.26-.54.09-.86.09c-.26,0-.51-.04-.76-.12-.25-.07-.46-.19-.66-.35-.19-.16-.35-.36-.46-.61-.12-.25-.17-.54-.17-.9,0-.32.09-.62.28-.9.19-.28.48-.52.87-.72s.9-.37,1.51-.49c.62-.12,1.36-.19,2.22-.22v-.8c0-.7-.15-1.25-.46-1.63s-.75-.57-1.35-.57c-.37,0-.68.05-.94.15-.26.11-.48.22-.66.34s-.33.23-.44.34-.2.15-.28.15c-.06,0-.11-.01-.14-.04-.04-.02-.07-.06-.09-.1l-.13-.22h0ZM177.64,36.18c-.73.02-1.35.08-1.88.17-.53.09-.96.21-1.3.36-.34.15-.59.33-.75.55-.16.21-.25.45-.25.72,0,.25.04.48.12.66.09.19.2.34.34.46.14.12.3.21.49.27.19.06.38.09.57.09.3,0,.57-.03.82-.09s.48-.15.69-.27c.21-.12.41-.25.59-.41.19-.16.36-.33.54-.51v-2h0Z"/>
            <path d="M186.56,28.7v11.16h-.4c-.14,0-.21-.07-.23-.2l-.07-1.21c-.34.46-.73.83-1.18,1.1s-.96.41-1.52.41c-.94,0-1.68-.33-2.19-.98-.52-.65-.79-1.63-.79-2.92,0-.56.07-1.08.22-1.56.15-.48.36-.9.64-1.26s.63-.64,1.04-.84.88-.31,1.42-.31.96.09,1.34.28c.38.19.71.47.99.85v-4.53h.74ZM185.83,33.88c-.29-.44-.62-.75-.97-.93s-.76-.27-1.22-.27-.85.08-1.18.25c-.34.16-.62.4-.85.69s-.4.66-.51,1.08c-.12.41-.17.88-.17,1.38,0,1.14.21,1.97.62,2.5.41.54,1.02.8,1.81.8.5,0,.96-.13,1.37-.39.41-.26.78-.62,1.09-1.09v-4.01h0Z"/>
          </g>
          <g>
            <path d="M80.02,20.08c.12,0,.25.02.37.07s.24.12.35.24l2.06,2.17c-.9,1.18-2.03,2.07-3.39,2.67-1.36.6-2.97.9-4.82.9-1.71,0-3.23-.29-4.58-.87s-2.49-1.38-3.43-2.4c-.94-1.02-1.66-2.23-2.16-3.63-.5-1.4-.75-2.92-.75-4.56s.27-3.21.82-4.61,1.31-2.61,2.29-3.62c.98-1.01,2.16-1.81,3.54-2.37,1.37-.56,2.89-.85,4.54-.85.84,0,1.63.07,2.38.22.74.15,1.44.35,2.08.62.64.26,1.24.57,1.79.95s1.03.77,1.45,1.2l-1.76,2.36c-.11.14-.25.27-.4.39-.15.12-.37.18-.65.18-.19,0-.36-.04-.53-.12-.17-.08-.34-.18-.53-.3s-.39-.25-.61-.38c-.22-.14-.48-.27-.79-.38s-.66-.22-1.06-.3c-.41-.08-.88-.12-1.42-.12-.86,0-1.65.16-2.36.48s-1.33.79-1.85,1.39c-.52.61-.92,1.36-1.2,2.25-.28.89-.42,1.9-.42,3.04s.15,2.17.47,3.06c.32.89.74,1.64,1.28,2.26s1.17,1.08,1.89,1.39,1.49.48,2.31.48c.47,0,.9-.02,1.29-.07s.75-.12,1.09-.23.66-.25.95-.43.6-.41.91-.69c.12-.11.26-.19.4-.25s.29-.1.45-.1h0Z"/>
            <path d="M83.83,12.13c.96-.85,2.03-1.48,3.21-1.9,1.17-.41,2.44-.62,3.78-.62.96,0,1.84.15,2.61.47s1.43.75,1.97,1.31c.54.56.95,1.22,1.24,1.99.28.77.43,1.61.43,2.52v9.97h-2.19c-.45,0-.79-.06-1.03-.19-.23-.12-.42-.38-.57-.77l-.34-.88c-.4.34-.79.64-1.16.89s-.75.48-1.15.66-.82.32-1.26.4c-.45.09-.94.13-1.48.13-.73,0-1.39-.09-1.98-.28-.59-.19-1.1-.47-1.51-.84-.41-.37-.74-.83-.96-1.38s-.34-1.18-.34-1.9c0-.57.14-1.16.43-1.75.28-.59.79-1.13,1.5-1.61.71-.49,1.66-.9,2.86-1.22,1.2-.33,2.71-.51,4.54-.56v-.68c0-.93-.19-1.61-.57-2.02s-.93-.62-1.64-.62c-.56,0-1.03.06-1.38.19s-.68.26-.96.41c-.28.15-.56.29-.82.41-.27.12-.59.19-.95.19-.33,0-.61-.08-.83-.25-.23-.17-.41-.36-.56-.59l-.86-1.5v.02ZM92.42,19.39c-.95.04-1.74.12-2.36.25s-1.1.28-1.47.46c-.36.19-.61.4-.75.63-.14.23-.21.49-.21.77,0,.54.15.93.45,1.14.3.22.74.33,1.31.33.62,0,1.16-.11,1.61-.32s.93-.56,1.4-1.04v-2.22h0Z"/>
            <path d="M105.24,26.12c-.76,0-1.43-.11-2.01-.33s-1.07-.53-1.47-.94-.69-.9-.9-1.47c-.2-.57-.31-1.22-.31-1.92v-8.25h-1.35c-.25,0-.46-.08-.63-.24s-.26-.39-.26-.7v-1.86l2.54-.49.94-3.89c.12-.49.47-.74,1.04-.74h2.49v4.66h3.96v3.26h-3.96v7.92c0,.37.09.67.27.91.18.24.44.36.78.36.17,0,.32-.02.44-.06s.22-.07.31-.12c.09-.04.17-.09.25-.12.07-.04.17-.06.27-.06.14,0,.26.03.35.1s.18.17.27.32l1.45,2.26c-.62.46-1.31.81-2.08,1.04-.77.23-1.56.35-2.39.35v.02Z"/>
            <path d="M110.66,12.13c.96-.85,2.03-1.48,3.21-1.9,1.17-.41,2.44-.62,3.78-.62.96,0,1.84.15,2.61.47s1.43.75,1.97,1.31c.54.56.95,1.22,1.24,1.99.28.77.43,1.61.43,2.52v9.97h-2.19c-.45,0-.79-.06-1.03-.19-.23-.12-.42-.38-.57-.77l-.34-.88c-.4.34-.79.64-1.16.89s-.75.48-1.15.66-.82.32-1.26.4c-.45.09-.94.13-1.48.13-.73,0-1.39-.09-1.98-.28-.59-.19-1.1-.47-1.51-.84-.41-.37-.74-.83-.96-1.38s-.34-1.18-.34-1.9c0-.57.14-1.16.43-1.75.28-.59.79-1.13,1.5-1.61.71-.49,1.66-.9,2.86-1.22,1.2-.33,2.71-.51,4.54-.56v-.68c0-.93-.19-1.61-.57-2.02s-.93-.62-1.64-.62c-.56,0-1.03.06-1.38.19s-.68.26-.96.41c-.28.15-.56.29-.82.41-.27.12-.59.19-.95.19-.33,0-.61-.08-.83-.25-.23-.17-.41-.36-.56-.59l-.86-1.5v.02ZM119.25,19.39c-.95.04-1.74.12-2.36.25s-1.1.28-1.47.46c-.36.19-.61.4-.75.63-.14.23-.21.49-.21.77,0,.54.15.93.45,1.14.3.22.74.33,1.31.33.62,0,1.16-.11,1.61-.32s.93-.56,1.4-1.04v-2.22h0ZM123.36,3.21l-4,4.05c-.23.23-.46.4-.68.5-.22.1-.5.15-.86.15h-2.86l2.1-3.77c.17-.3.38-.53.62-.69s.59-.24,1.08-.24h4.62,0Z"/>
            <path d="M131.37,2.84v23.04h-4.77V2.84h4.77Z"/>
            <path d="M141.62,9.67c1.21,0,2.31.19,3.31.57,1,.38,1.85.92,2.57,1.63.71.71,1.27,1.57,1.66,2.58.4,1.01.59,2.15.59,3.41s-.2,2.42-.59,3.44c-.4,1.02-.95,1.89-1.66,2.6-.71.71-1.57,1.26-2.57,1.64s-2.1.57-3.31.57-2.33-.19-3.33-.57-1.86-.93-2.58-1.64-1.29-1.58-1.68-2.6c-.4-1.02-.59-2.17-.59-3.44s.2-2.4.59-3.41c.4-1.01.95-1.87,1.68-2.58.72-.71,1.58-1.25,2.58-1.63,1-.38,2.11-.57,3.33-.57ZM141.62,22.59c1.1,0,1.9-.39,2.42-1.16s.78-1.95.78-3.53-.26-2.76-.78-3.52c-.52-.77-1.33-1.16-2.42-1.16s-1.95.38-2.48,1.16c-.53.77-.79,1.95-.79,3.52s.26,2.76.79,3.53,1.35,1.16,2.48,1.16Z"/>
            <path d="M166.14,10.41v1.74c0,.27-.07.48-.22.63s-.4.27-.76.35l-1.16.26c.06.23.11.46.15.69.04.23.06.48.06.74,0,.8-.17,1.52-.5,2.16-.33.64-.79,1.17-1.37,1.63s-1.27.79-2.05,1.03c-.79.24-1.64.36-2.54.36-.25,0-.49,0-.72-.02s-.46-.04-.69-.09c-.35.22-.53.46-.53.72s.14.46.43.57c.28.12.67.2,1.14.25.47.04,1.01.07,1.61.09s1.21.05,1.84.11c.62.06,1.24.15,1.84.28.6.14,1.14.35,1.61.65.47.3.85.69,1.14,1.19s.43,1.13.43,1.9c0,.72-.17,1.42-.53,2.11-.35.69-.86,1.3-1.54,1.83-.68.53-1.51.96-2.49,1.29-.98.32-2.11.48-3.39.48s-2.33-.12-3.24-.35-1.66-.54-2.26-.93-1.04-.83-1.33-1.33c-.28-.5-.43-1.03-.43-1.57,0-.71.2-1.3.62-1.77.41-.47.98-.85,1.72-1.14-.39-.23-.7-.54-.92-.91-.23-.37-.34-.85-.34-1.43,0-.23.04-.48.12-.75s.21-.52.4-.77c.18-.25.4-.49.67-.72.27-.23.59-.43.95-.6-.83-.44-1.49-1.03-1.97-1.75s-.72-1.57-.72-2.53c0-.8.17-1.52.51-2.16s.8-1.19,1.39-1.63c.59-.45,1.29-.79,2.08-1.03.8-.24,1.67-.36,2.6-.36,1.35,0,2.55.26,3.6.77h4.8,0ZM161.43,26.46c0-.38-.17-.66-.51-.82-.34-.17-.78-.29-1.32-.36-.54-.07-1.15-.12-1.82-.13-.67-.02-1.34-.06-2.01-.12-.3.2-.54.43-.73.69-.19.25-.28.54-.28.85,0,.23.05.43.15.62s.27.35.51.48.57.24,1,.32c.41.07.94.12,1.58.12.69,0,1.25-.04,1.69-.12s.79-.2,1.06-.34c.26-.14.45-.32.54-.51.11-.2.15-.42.15-.66h0ZM157.74,17.06c.79,0,1.36-.2,1.72-.59.35-.4.53-.9.53-1.53s-.18-1.16-.53-1.52c-.35-.37-.93-.56-1.72-.56s-1.36.19-1.72.56c-.35.37-.53.88-.53,1.52,0,.31.04.59.13.85.09.26.22.48.41.67s.42.34.7.45c.28.11.62.16,1.01.16h0Z"/>
            <path d="M174.85,9.67c1.21,0,2.31.19,3.31.57,1,.38,1.85.92,2.57,1.63.71.71,1.27,1.57,1.66,2.58.4,1.01.59,2.15.59,3.41s-.2,2.42-.59,3.44c-.4,1.02-.95,1.89-1.66,2.6-.71.71-1.57,1.26-2.57,1.64s-2.1.57-3.31.57-2.33-.19-3.33-.57c-1-.38-1.86-.93-2.58-1.64s-1.29-1.58-1.68-2.6c-.4-1.02-.59-2.17-.59-3.44s.2-2.4.59-3.41c.4-1.01.95-1.87,1.68-2.58.72-.71,1.58-1.25,2.58-1.63,1-.38,2.11-.57,3.33-.57ZM174.85,22.59c1.1,0,1.9-.39,2.42-1.16.52-.77.78-1.95.78-3.53s-.26-2.76-.78-3.52c-.52-.77-1.33-1.16-2.42-1.16s-1.95.38-2.48,1.16c-.53.77-.79,1.95-.79,3.52s.26,2.76.79,3.53c.53.77,1.35,1.16,2.48,1.16Z"/>
          </g>
        </g>
      </g>
    </g>
  </g>
</svg>