<?xml version="1.0" encoding="UTF-8"?>
<svg id="Capa_2" xmlns="http://www.w3.org/2000/svg" viewBox="0 0 230.69 69.55">
  <g id="Monotono">
    <g>
      <g>
        <path d="M1.6,26.18c4.22,15.61,13.02,30.77,24.9,41.77,13.83-3.31,27.25-10.53,37.77-20.25-.23-.19-.45-.4-.65-.63h0s-2.55-2.64-6.52-2.91c-4.58-.31-10.54,6.5-10.54,6.5h0c-3.5,4.16-8.75,6.81-14.62,6.81-10.54,0-19.08-8.53-19.08-19.05s8.55-19.05,19.08-19.05c2.26,0,4.43.39,6.45,1.11,4.7,1.68,8.54,5.16,10.71,9.6h0s4.14,8.56,8.61,9.38c3.88.71,7.14-1.27,7.14-1.27h0c.45-.29.95-.52,1.48-.69-4.26-13.39-12.12-26.04-21.99-35.89C28.46,5.69,13.11,14.53,1.6,26.18ZM46.1,10.5c0,2.54-2.06,4.59-4.6,4.59s-4.6-2.06-4.6-4.59,2.06-4.6,4.6-4.6,4.6,2.06,4.6,4.6Z"/>
        <g>
          <path d="M62.73,21.61c.54,2.01,1.02,4.03,1.43,6.07,1.19,2.63,2.25,5.32,3.17,8.04.86-1.96,1.64-3.95,2.34-5.96-2.11-2.85-4.43-5.57-6.94-8.15Z"/>
          <path d="M35.97,2.63c-2.05-.96-4.12-1.84-6.2-2.63-2.88,2.26-5.63,4.72-8.25,7.35,2.31-.65,4.65-1.21,7.01-1.69,2.44-1.12,4.93-2.14,7.44-3.04Z"/>
          <path d="M34.53,67.17c2.05.88,4.13,1.68,6.22,2.39,3.01-2.28,5.89-4.8,8.59-7.52-2.04.61-4.1,1.15-6.18,1.62-2.82,1.33-5.71,2.5-8.64,3.51Z"/>
          <path d="M2.66,34.41c-.97,2.1-1.87,4.23-2.66,6.38,2.42,3,5.07,5.87,7.9,8.58-.72-2.33-1.36-4.69-1.9-7.08-1.24-2.58-2.35-5.22-3.34-7.88Z"/>
        </g>
        <g>
          <path d="M15.63,63.91c1.69.17,3.4.29,5.11.35-4.42-4.84-8.32-10.26-11.6-16.01,1.65,5.46,3.81,10.74,6.49,15.66Z"/>
          <path d="M63.96,54.47c.18-1.59.31-3.19.4-4.79-4.58,4.11-9.67,7.75-15.08,10.83,5.11-1.56,10.05-3.58,14.69-6.04Z"/>
          <path d="M5.46,15.13c-.13,1.86-.21,3.72-.23,5.6,5.31-4.65,11.23-8.75,17.51-12.16-6.01,1.62-11.83,3.82-17.29,6.56Z"/>
          <path d="M55.09,5.54c-1.75-.15-3.51-.24-5.29-.28,4.36,5.03,8.22,10.6,11.43,16.51-1.54-5.64-3.61-11.1-6.15-16.23Z"/>
        </g>
        <g>
          <path d="M22.43,39.29c-.49-5.23,3.37-9.87,8.61-10.36,5.24-.49,9.89,3.37,10.37,8.6.49,5.23-3.37,9.86-8.61,10.35-5.24.49-9.88-3.36-10.37-8.59Z"/>
          <path d="M65.12,43.43c-.15-1.63,1.05-3.07,2.68-3.22,1.63-.15,3.08,1.05,3.23,2.68.15,1.63-1.05,3.07-2.68,3.22-1.63.15-3.08-1.05-3.23-2.68Z"/>
          <path d="M39.2,10.5c0-1.27,1.03-2.3,2.3-2.3s2.3,1.03,2.3,2.3-1.03,2.3-2.3,2.3-2.3-1.03-2.3-2.3Z"/>
        </g>
      </g>
      <polygon points="88.62 65.7 87.79 65.7 87.79 34.78 87.79 3.85 88.62 3.85 88.62 34.78 88.62 65.7"/>
      <g>
        <path d="M111.31,5.31c2.06,0,3.61.45,4.66,1.35,1.05.9,1.57,2.19,1.57,3.86,0,.77-.14,1.48-.43,2.12-.29.65-.7,1.2-1.24,1.67-.54.47-1.19.83-1.96,1.09s-1.63.39-2.59.39h-3.26v7.08h-1.28V5.31h4.54ZM111.31,14.78c.77,0,1.46-.11,2.07-.32.61-.21,1.13-.51,1.56-.89.43-.38.75-.83.98-1.35.23-.52.34-1.08.34-1.69,0-1.35-.41-2.39-1.24-3.12-.83-.73-2.06-1.09-3.71-1.09h-3.26v8.46h3.26Z"/>
        <path d="M124.42,10.33c.89,0,1.68.15,2.38.45.7.3,1.29.73,1.77,1.29s.85,1.22,1.1,2c.25.78.38,1.66.38,2.63s-.13,1.84-.38,2.62c-.25.78-.62,1.44-1.1,2-.48.55-1.07.98-1.77,1.28s-1.49.45-2.38.45-1.68-.15-2.38-.45-1.29-.72-1.77-1.28c-.48-.55-.85-1.22-1.11-2-.25-.78-.38-1.65-.38-2.62s.13-1.84.38-2.63c.25-.78.62-1.45,1.11-2,.48-.55,1.08-.98,1.77-1.29.7-.3,1.49-.45,2.38-.45ZM124.42,22.11c.74,0,1.38-.13,1.93-.38.55-.25,1.01-.61,1.38-1.09s.64-1.04.83-1.71c.18-.67.27-1.41.27-2.24s-.09-1.56-.27-2.23c-.18-.67-.46-1.24-.83-1.72-.37-.48-.83-.84-1.38-1.1-.55-.26-1.19-.38-1.93-.38s-1.38.13-1.93.38c-.55.26-1.01.62-1.38,1.1-.37.48-.65,1.05-.83,1.72-.19.67-.28,1.42-.28,2.23s.09,1.57.28,2.24c.19.67.46,1.23.83,1.71s.83.83,1.38,1.09c.55.25,1.19.38,1.93.38Z"/>
        <path d="M134.24,13.51c.19-.5.41-.95.65-1.35.24-.39.53-.73.84-1,.32-.27.67-.48,1.07-.63.39-.14.83-.22,1.31-.22.26,0,.51.02.76.07.25.04.47.13.66.24l-.1.82c-.04.13-.12.2-.24.2-.1,0-.25-.03-.45-.09-.2-.06-.47-.09-.8-.09-.48,0-.9.07-1.27.22-.37.15-.7.36-.99.65-.29.29-.55.65-.77,1.07-.22.43-.42.92-.6,1.47v7.99h-1.19v-12.35h.63c.14,0,.24.03.3.09.06.06.09.16.11.3l.09,2.59Z"/>
        <path d="M144.99,23.08c-.84,0-1.49-.23-1.96-.69-.47-.46-.7-1.18-.7-2.15v-8.44h-1.78c-.09,0-.17-.02-.22-.07-.06-.05-.09-.12-.09-.21v-.46l2.11-.15.3-4.42c.02-.07.05-.14.1-.2.05-.06.12-.09.21-.09h.56v4.72h3.9v.88h-3.9v8.38c0,.34.04.63.13.88.09.24.21.45.36.6s.33.27.54.35c.21.07.43.11.67.11.3,0,.55-.04.77-.13.21-.09.4-.18.56-.29.16-.1.29-.2.38-.29s.18-.13.23-.13c.07,0,.13.04.2.12l.32.52c-.31.35-.71.63-1.2.84s-.99.32-1.51.32Z"/>
        <path d="M149.49,12.28c.64-.65,1.32-1.13,2.04-1.46.71-.33,1.52-.5,2.42-.5.66,0,1.24.11,1.74.32.5.21.91.51,1.23.91.33.39.57.87.74,1.43s.25,1.18.25,1.87v8.04h-.47c-.25,0-.4-.12-.46-.35l-.17-1.59c-.34.33-.68.63-1.01.89-.34.27-.69.49-1.05.67-.37.18-.76.32-1.18.42s-.88.15-1.39.15c-.42,0-.83-.06-1.23-.19s-.75-.31-1.06-.57c-.31-.26-.56-.58-.75-.99-.19-.4-.28-.88-.28-1.45,0-.52.15-1.01.45-1.45.3-.45.77-.84,1.4-1.17s1.46-.6,2.45-.79c1-.2,2.2-.31,3.59-.35v-1.29c0-1.14-.25-2.02-.74-2.64-.49-.62-1.22-.92-2.19-.92-.6,0-1.1.08-1.52.25-.42.17-.77.35-1.06.55-.29.2-.53.38-.71.55-.18.17-.33.25-.46.25-.09,0-.17-.02-.22-.06-.06-.04-.11-.1-.15-.16l-.21-.36ZM156.75,16.91c-1.18.04-2.19.13-3.04.28-.85.14-1.55.34-2.1.59-.55.25-.96.54-1.22.89-.26.34-.4.73-.4,1.17,0,.41.07.77.21,1.07.14.3.32.55.55.74.23.19.49.34.79.43.3.09.61.14.93.14.48,0,.92-.05,1.32-.15.4-.1.78-.25,1.12-.43.34-.19.66-.41.96-.66.3-.26.59-.53.88-.83v-3.23Z"/>
        <path d="M162.88,4.82v18.06h-1.19V4.82h1.19Z"/>
        <path d="M182.87,4.82v18.06h-.65c-.21,0-.34-.11-.37-.32l-.12-1.95c-.55.75-1.18,1.34-1.91,1.78s-1.55.66-2.46.66c-1.52,0-2.71-.53-3.55-1.58-.85-1.05-1.27-2.63-1.27-4.73,0-.9.12-1.74.35-2.53.24-.78.58-1.46,1.04-2.04s1.02-1.03,1.68-1.36,1.43-.5,2.3-.5,1.56.15,2.17.46,1.15.76,1.6,1.37v-7.32h1.18ZM181.69,13.18c-.47-.71-1-1.21-1.57-1.5-.58-.29-1.23-.43-1.97-.43s-1.37.13-1.91.4-1,.64-1.37,1.12c-.37.48-.65,1.06-.83,1.74-.19.67-.28,1.42-.28,2.23,0,1.84.34,3.19,1.01,4.05.67.87,1.65,1.3,2.92,1.3.81,0,1.55-.21,2.22-.63.67-.42,1.26-1.01,1.78-1.77v-6.49Z"/>
        <path d="M187.09,16.21v.24c0,.93.11,1.74.32,2.45s.52,1.29.92,1.77c.4.48.88.83,1.44,1.07s1.19.36,1.89.36c.62,0,1.16-.07,1.61-.2.46-.14.84-.29,1.15-.46.31-.17.55-.32.74-.46.18-.14.31-.21.4-.21.11,0,.19.04.25.12l.32.4c-.2.25-.46.48-.79.7-.33.21-.69.4-1.09.55-.4.15-.83.28-1.29.37-.46.09-.92.14-1.38.14-.84,0-1.61-.15-2.31-.44s-1.29-.72-1.79-1.28c-.5-.56-.88-1.25-1.15-2.07-.27-.81-.4-1.75-.4-2.8,0-.88.12-1.7.38-2.45.25-.75.62-1.39,1.09-1.94.47-.54,1.06-.97,1.75-1.27.69-.31,1.47-.46,2.35-.46.7,0,1.34.12,1.94.36s1.11.59,1.55,1.05c.44.46.78,1.02,1.04,1.69.25.67.38,1.44.38,2.31,0,.18-.03.31-.07.37s-.13.1-.25.1h-8.99ZM195.33,15.46c0-.66-.09-1.26-.28-1.78-.19-.53-.45-.97-.79-1.33-.34-.36-.74-.64-1.21-.84-.47-.19-.98-.29-1.55-.29-.64,0-1.21.1-1.71.3-.5.2-.94.48-1.31.86-.37.37-.66.82-.89,1.34-.22.52-.37,1.1-.45,1.75h8.18Z"/>
      </g>
      <g>
        <path d="M137.9,45.88c0,2.62-.45,5.04-1.36,7.26-.9,2.22-2.18,4.13-3.82,5.75s-3.62,2.88-5.94,3.78c-2.32.91-4.88,1.36-7.71,1.36h-14.09V27.76h14.09c2.82,0,5.39.46,7.71,1.37,2.32.91,4.29,2.17,5.94,3.78,1.64,1.61,2.92,3.52,3.82,5.74.91,2.22,1.36,4.63,1.36,7.23ZM129.29,45.88c0-1.79-.23-3.41-.7-4.86-.46-1.44-1.13-2.67-2-3.67-.87-1-1.94-1.78-3.2-2.32-1.26-.54-2.7-.81-4.31-.81h-5.63v23.33h5.63c1.61,0,3.05-.27,4.31-.81s2.33-1.31,3.2-2.32c.87-1,1.54-2.23,2-3.67.46-1.44.7-3.07.7-4.88Z"/>
        <path d="M140.29,41.8c1.56-1.38,3.29-2.4,5.19-3.08s3.94-1.01,6.11-1.01c1.56,0,2.97.25,4.22.76,1.25.51,2.31,1.21,3.19,2.12.87.91,1.54,1.98,2.01,3.22.46,1.25.7,2.61.7,4.08v16.13h-3.54c-.73,0-1.28-.1-1.65-.3-.38-.2-.69-.61-.93-1.25l-.55-1.42c-.65.55-1.27,1.03-1.87,1.44s-1.22.77-1.86,1.06c-.64.29-1.32.51-2.04.65s-1.52.21-2.4.21c-1.18,0-2.25-.15-3.21-.46-.96-.31-1.78-.76-2.45-1.36s-1.19-1.34-1.56-2.23-.55-1.91-.55-3.08c0-.93.23-1.87.7-2.83.46-.95,1.27-1.83,2.41-2.61,1.15-.79,2.69-1.45,4.63-1.98,1.94-.53,4.39-.83,7.35-.9v-1.1c0-1.51-.31-2.6-.93-3.27-.62-.67-1.51-1.01-2.65-1.01-.91,0-1.66.1-2.24.3-.58.2-1.1.42-1.56.67s-.9.47-1.33.67-.95.3-1.54.3c-.53,0-.98-.13-1.35-.4s-.66-.58-.9-.95l-1.39-2.42ZM154.19,53.53c-1.54.07-2.81.2-3.81.4s-1.78.45-2.37.75c-.58.3-.98.64-1.21,1.02s-.34.8-.34,1.25c0,.88.24,1.5.72,1.85.48.36,1.19.54,2.12.54,1,0,1.87-.17,2.62-.52.75-.35,1.5-.91,2.27-1.69v-3.59Z"/>
        <path d="M174.92,64.43c-1.23,0-2.31-.18-3.25-.54-.94-.36-1.73-.86-2.37-1.52-.64-.66-1.12-1.45-1.46-2.38-.33-.93-.5-1.97-.5-3.11v-13.35h-2.19c-.4,0-.74-.13-1.02-.39-.28-.26-.42-.63-.42-1.13v-3.01l4.11-.8,1.52-6.3c.2-.8.76-1.2,1.69-1.2h4.03v7.54h6.4v5.28h-6.4v12.82c0,.6.14,1.09.44,1.48.29.39.71.58,1.26.58.28,0,.52-.03.71-.09.19-.06.36-.12.5-.2.14-.08.27-.14.4-.2.12-.06.27-.09.44-.09.23,0,.42.05.56.16.14.11.29.28.44.51l2.34,3.66c-1,.75-2.12,1.31-3.36,1.68-1.24.37-2.53.56-3.86.56Z"/>
        <path d="M195.91,37.82c1.96,0,3.74.31,5.35.92,1.61.61,2.99,1.49,4.15,2.64,1.15,1.15,2.05,2.54,2.69,4.17.64,1.63.96,3.47.96,5.51s-.32,3.91-.96,5.56c-.64,1.65-1.54,3.05-2.69,4.21s-2.54,2.04-4.15,2.66c-1.61.62-3.39.93-5.35.93s-3.77-.31-5.39-.93c-1.62-.62-3.01-1.51-4.18-2.66s-2.07-2.56-2.71-4.21c-.64-1.65-.96-3.51-.96-5.56s.32-3.88.96-5.51c.64-1.63,1.54-3.03,2.71-4.17,1.17-1.14,2.56-2.02,4.18-2.64,1.62-.61,3.41-.92,5.39-.92ZM195.91,58.71c1.78,0,3.08-.63,3.92-1.88.84-1.25,1.26-3.16,1.26-5.71s-.42-4.46-1.26-5.7c-.84-1.25-2.14-1.87-3.92-1.87s-3.16.62-4.01,1.87c-.85,1.24-1.27,3.15-1.27,5.7s.42,4.46,1.27,5.71c.85,1.25,2.18,1.88,4.01,1.88Z"/>
        <path d="M228.8,43.87c-.2.32-.41.54-.63.67-.22.13-.51.2-.86.2s-.73-.08-1.1-.24c-.37-.16-.76-.33-1.18-.51-.42-.18-.9-.35-1.43-.51-.53-.16-1.14-.24-1.82-.24-.98,0-1.73.19-2.25.56-.52.37-.78.89-.78,1.56,0,.48.17.88.51,1.19.34.32.79.59,1.36.83.56.24,1.2.47,1.92.68.71.22,1.44.46,2.19.72.75.27,1.48.58,2.19.93.71.36,1.35.8,1.92,1.32.56.52,1.02,1.16,1.36,1.91.34.75.51,1.64.51,2.69,0,1.28-.23,2.46-.7,3.54-.46,1.08-1.16,2.01-2.08,2.79-.92.78-2.06,1.39-3.41,1.82s-2.91.65-4.67.65c-.88,0-1.76-.08-2.64-.25-.88-.17-1.73-.39-2.55-.67s-1.58-.62-2.28-1.01c-.7-.39-1.29-.81-1.79-1.26l1.79-2.84c.2-.33.45-.59.76-.78.31-.19.7-.29,1.18-.29.45,0,.85.1,1.21.3s.74.42,1.16.65c.41.23.9.45,1.46.65.55.2,1.26.3,2.1.3.6,0,1.1-.06,1.52-.19.42-.12.75-.29,1-.51.25-.22.43-.46.55-.72.12-.26.17-.54.17-.82,0-.51-.17-.94-.52-1.27-.35-.33-.8-.62-1.37-.86-.56-.24-1.21-.46-1.93-.67-.72-.21-1.46-.44-2.2-.71s-1.48-.58-2.2-.96c-.72-.37-1.37-.85-1.93-1.42-.56-.57-1.02-1.27-1.37-2.1-.35-.83-.52-1.83-.52-3.01,0-1.1.21-2.14.63-3.12.42-.99,1.06-1.85,1.9-2.6.85-.75,1.91-1.34,3.19-1.78,1.28-.44,2.77-.66,4.48-.66.93,0,1.83.08,2.7.25.87.17,1.69.4,2.45.7s1.46.65,2.09,1.06c.63.41,1.19.85,1.67,1.33l-1.74,2.71Z"/>
      </g>
    </g>
  </g>
</svg>